<?xml version="1.0" encoding="UTF-8" standalone="no"?>
<!-- Created with Inkscape (http://www.inkscape.org/) -->

<svg
   xmlns:dc="http://purl.org/dc/elements/1.1/"
   xmlns:cc="http://creativecommons.org/ns#"
   xmlns:rdf="http://www.w3.org/1999/02/22-rdf-syntax-ns#"
   xmlns:svg="http://www.w3.org/2000/svg"
   xmlns="http://www.w3.org/2000/svg"
   xmlns:sodipodi="http://sodipodi.sourceforge.net/DTD/sodipodi-0.dtd"
   xmlns:inkscape="http://www.inkscape.org/namespaces/inkscape"
   width="252"
   height="252"
   viewBox="0 0 66.674999 66.675002"
   version="1.1"
   id="svg1158"
   inkscape:version="0.92.3 (2405546, 2018-03-11)"
   sodipodi:docname="logo.svg">
  <defs
     id="defs1152" />
  <sodipodi:namedview
     id="base"
     pagecolor="#ffffff"
     bordercolor="#666666"
     borderopacity="1.0"
     inkscape:pageopacity="0.0"
     inkscape:pageshadow="2"
     inkscape:zoom="0.35"
     inkscape:cx="-38.571429"
     inkscape:cy="-82.857143"
     inkscape:document-units="mm"
     inkscape:current-layer="layer1"
     showgrid="false"
     units="px"
     inkscape:window-width="1366"
     inkscape:window-height="740"
     inkscape:window-x="0"
     inkscape:window-y="0"
     inkscape:window-maximized="1" />
  <metadata
     id="metadata1155">
    <rdf:RDF>
      <cc:Work
         rdf:about="">
        <dc:format>image/svg+xml</dc:format>
        <dc:type
           rdf:resource="http://purl.org/dc/dcmitype/StillImage" />
        <dc:title></dc:title>
      </cc:Work>
    </rdf:RDF>
  </metadata>
  <g
     inkscape:label="Layer 1"
     inkscape:groupmode="layer"
     id="layer1"
     transform="translate(0,-230.32498)">
    <g
       id="g973"
       transform="matrix(0.31501016,0,0,0.31501016,-47.963472,-119.85766)">
      <path
         id="path971"
         d="m 363.07,1217.5 c -0.06,-33.21 -16.04,-64.71 -42.58,-84.42 -3.88,-2.91 -8.58,-5.89 -11.47,-7.41 -0.97,-0.53 -2.1,-0.34 -3.03,0.26 0,0 0,0 0,0 -19.7,11.4 -34.04,25.55 -40.7,40.3 -0.23,0.5 -0.73,0.82 -1.29,0.8 -18.49,-0.64 -24.92,24.31 -7.45,31.2 6.33,2.46 7.59,27 17.18,32.22 3.7,2.01 8.41,7.92 11.01,11.23 l 7.99,10.29 c 1.76,2.09 2.22,2.42 3.9,1.8 l 8.16,-3.14 c 1.15,-0.4 1.42,-1.02 1.75,-2.21 2.48,-8.88 9.33,-22.39 16.11,-26.75 6.26,-4.03 18.6,-4.95 29.41,-2.93 -0.67,51.33 -42.48,92.74 -93.97,92.74 v 0 c -9.04,0 -17.8,-1.31 -25.84,-3.6 -1.58,-0.45 -4.05,-1.28 -5.37,-0.22 l -6.57,5.31 c -0.93,0.79 -1.01,2.13 0.17,2.58 11.66,4.48 24.34,6.93 37.6,6.94 v 0.01 c 57.99,0 105,-47.01 105,-105 z m -83.08,3.92 c -0.08,0.08 -0.19,0.1 -0.29,0.08 -0.6,-0.15 -2.67,-0.83 -3.34,-3.35 -0.68,-2.52 0.77,-4.14 1.22,-4.57 0.08,-0.08 0.18,-0.1 0.29,-0.08 0.6,0.15 2.67,0.83 3.34,3.35 0.68,2.52 -0.77,4.14 -1.22,4.57 z m -45.36,51.11 c 7.25,-3.54 22.28,-2.35 31.16,0.12 1.19,0.33 1.86,0.42 2.8,-0.36 l 6.91,-5.36 c 1.45,-1.14 1.9,-2.13 0.39,-4.28 0,0 -24.12,-35.18 -23.96,-39.39 0.36,-9.08 -15.65,-15.75 -20.18,-29.59 -0.1,-0.29 -0.2,-0.59 -0.31,-0.88 -0.4,-1.5 -0.71,-3.04 -0.92,-4.61 -2.21,-16.58 6.52,-31.4 19.98,-38.27 0.94,-0.48 0.42,-1.91 -0.6,-1.66 -20.98,5.03 -36.09,25.14 -33.23,48.23 0.04,0.3 0.08,0.59 0.12,0.88 0,0 0,0 0,0.01 0.01,0.56 0.03,1.11 0.06,1.67 0.06,1.2 -0.94,2.19 -2.14,2.1 -14.91,-1.11 -32.52,3.59 -50.54,13.35 1.57,-50.46 42.92,-90.9 93.74,-91 v 0.01 c 7.98,-0.02 15.73,0.95 23.14,2.81 1.59,0.4 3.27,0.09 4.66,-0.79 l 7.18,-4.57 c 1.06,-0.68 0.87,-2.28 -0.33,-2.69 -10.81,-3.76 -22.41,-5.79 -34.46,-5.78 v -0.01 c -57.99,0 -105,47.01 -105,105 h 0.02 c 0.05,33.01 15.85,64.17 41.87,83.86 0.14,0.1 0.29,0.19 0.44,0.27 3.02,2.26 6.17,4.38 9.44,6.32 1.07,0.63 2.43,0.52 3.4,-0.26 l 6.79,-5.49 c 0.17,-0.1 0.39,-0.5 0.52,-0.95 3.47,-11.67 11.47,-24.99 19.05,-28.69 z m -0.66,-48.27 c 0.01,-0.11 0.07,-0.2 0.17,-0.25 0.55,-0.27 2.58,-1.08 4.71,0.42 2.14,1.5 2.07,3.67 2,4.29 -0.01,0.11 -0.07,0.2 -0.17,0.25 -0.55,0.27 -2.58,1.08 -4.71,-0.42 -2.13,-1.5 -2.07,-3.67 -2,-4.29 z"
         class="st1"
         inkscape:connector-curvature="0"
         style="fill:#a89968" />
    </g>
  </g>
</svg>
